<svg xmlns="http://www.w3.org/2000/svg" width="100" height="100" viewBox="0 0 100 100" fill="none"><g clip-path="url(#clip0_101_22114)"><path d="M50 100C77.6142 100 100 77.6142 100 50C100 22.3858 77.6142 0 50 0C22.3858 0 0 22.3858 0 50C0 77.6142 22.3858 100 50 100Z" fill="black"></path><path d="M50 2.53333C76.1714 2.53333 97.4667 23.8286 97.4667 50C97.4667 76.1714 76.1714 97.4667 50 97.4667C23.8286 97.4667 2.53333 76.1714 2.53333 50C2.53333 23.8286 23.8286 2.53333 50 2.53333ZM50 0C22.3857 0 0 22.3857 0 50C0 77.6143 22.3857 100 50 100C77.6143 100 100 77.6143 100 50C100 22.3857 77.6143 0 50 0Z" fill="#E20D19"></path><path d="M50.1332 20.043L50.8856 22.5192L53.3428 22.5096L51.3523 24.0382L52.1142 26.5096L50.1332 24.9763L48.1475 26.5096L48.9094 24.0382L46.9189 22.5096L49.3761 22.5192L50.1332 20.043Z" fill="white"></path><path d="M40.3716 26.4951L41.124 28.9713L43.5859 28.9665L41.5907 30.4904L42.3573 32.9618L40.3716 31.4285L38.3859 32.9618L39.1526 30.4904L37.1621 28.9665L39.6193 28.9713L40.3716 26.4951Z" fill="white"></path><path d="M59.6002 26.4951L60.3525 28.9713L62.8144 28.9665L60.8192 30.4904L61.5859 32.9618L59.6002 31.4285L57.6144 32.9618L58.3811 30.4904L56.3906 28.9665L58.8478 28.9713L59.6002 26.4951Z" fill="white"></path><path d="M71.0333 43.8526C70.8905 43.7098 70.6857 43.6288 70.4714 43.6336C70.2095 43.6431 69.9476 43.6526 69.6857 43.6526C60.5571 43.6907 53.6095 38.3003 50.6381 32.3574C50.5429 32.1431 50.3572 31.9812 50.1191 31.9288C50.0952 31.9288 50.0762 31.9146 50.0524 31.9146H50.0429C50.0429 31.9146 50.0333 31.9146 50.0286 31.9146H50.0191C50.0191 31.9146 50.0095 31.9146 50 31.9146H49.9905C49.9905 31.9146 49.981 31.9146 49.9714 31.9146C49.9714 31.9146 49.9524 31.9146 49.9476 31.9146C49.9381 31.9146 49.9286 31.9146 49.9238 31.9146H49.9143H49.8952H49.8857C49.8857 31.9146 49.8762 31.9146 49.8667 31.9146H49.8571H49.8381H49.8286C49.8286 31.9146 49.7857 31.9241 49.7619 31.9288C49.5238 31.986 49.3381 32.1479 49.2572 32.3622C46.3238 38.3288 39.4191 43.7717 30.2905 43.805C30.0381 43.805 29.7667 43.8003 29.5048 43.7907C29.2952 43.7907 29.1 43.8669 28.9476 44.0146C28.8048 44.1669 28.7286 44.3622 28.7381 44.5765C29.4143 61.5622 37.9667 72.6955 49.7048 79.8384C49.7476 79.8622 49.8 79.886 49.8381 79.9003C49.9333 79.9431 50.0238 79.9574 50.1238 79.9574C50.2667 79.9574 50.4095 79.9146 50.5381 79.8336C62.2238 72.6003 70.6905 61.4003 71.2429 44.4098C71.2429 44.2003 71.1714 44.0003 71.0191 43.8526H71.0333Z" fill="white"></path><path fill-rule="evenodd" clip-rule="evenodd" d="M49.9573 32.6099C46.8239 39.0289 39.3335 44.8146 29.4478 44.5194C30.1382 61.2956 38.5144 72.1765 50.1335 79.2527L49.9573 32.6099Z" fill="#E20D19"></path><path fill-rule="evenodd" clip-rule="evenodd" d="M49.9478 32.6099C53.1287 39.0051 60.6716 44.7337 70.5478 44.3622C69.9954 61.1432 61.6954 72.086 50.1287 79.2527L49.9525 32.6099H49.9478Z" fill="#12100B"></path><path fill-rule="evenodd" clip-rule="evenodd" d="M57.719 56.2623C56.2428 51.3623 55.9618 48.8099 55.8095 43.6194C53.7618 42.367 51.7904 40.7051 49.9714 38.5527V38.5337V38.5432C49.9618 38.5432 49.9618 38.5432 49.9618 38.5337V38.5527C48.1571 40.7194 46.1999 42.4004 44.1618 43.6623C44.0476 48.8575 43.7857 51.4099 42.3476 56.3194C41.3333 58.9956 40.1428 61.7908 38.7285 64.2527C40.8428 67.6337 43.019 69.9956 46.8476 73.1908L46.7857 57.2432L50.038 57.2289H50.0523L53.2857 57.2146L53.3476 73.1623C57.1476 69.9385 59.3047 67.5575 61.3904 64.1623C59.9476 61.7099 58.7476 58.9242 57.7095 56.2575L57.719 56.2623ZM53.2857 54.867L50.0523 54.8813H50.038L46.7857 54.8956L46.7476 45.1718C47.8618 44.4432 48.9523 43.5527 49.9952 42.5432C51.0571 43.548 52.119 44.4289 53.2476 45.148L53.2857 54.8718V54.867Z" fill="white"></path><path d="M30.7095 11.3384L31.1143 12.0717L28.9 13.2955L29.2476 13.9289L31.2143 12.8431L31.6143 13.5717L29.6476 14.6574L30.1333 15.5336L29.2714 16.0098L27.6333 13.0431L30.7095 11.3431V11.3384Z" fill="white"></path><path d="M36.3001 12.6237L35.762 12.1523L33.8286 12.938L33.7715 13.6523L32.7905 14.0523L33.1334 10.2571L34.3905 9.74756L37.281 12.2285L36.3048 12.6237H36.3001ZM33.8953 12.1142L35.1334 11.6095L34.0143 10.6333L33.8953 12.1142Z" fill="white"></path><path d="M41.3476 10.1764L40.7619 7.81927L41.7095 7.58594L42.5238 10.8764L41.1286 11.224L38.6048 9.34784L39.1905 11.705L38.2381 11.9431L37.4238 8.6526L38.8238 8.30499L41.3476 10.1812V10.1764Z" fill="white"></path><path d="M46.1191 6.96208L50.2001 6.79541L50.2334 7.62874L48.6858 7.69065L48.7906 10.243L47.8096 10.2811L47.7049 7.72874L46.1525 7.79065L46.1191 6.95731V6.96208Z" fill="white"></path><path d="M51.3903 8.49526C51.4855 7.37622 52.3141 6.78098 53.7379 6.90479C55.1569 7.0286 55.876 7.75717 55.7807 8.87145C55.6855 9.9905 54.8522 10.5953 53.4331 10.4715C52.0093 10.3476 51.295 9.61907 51.3903 8.49526ZM54.7569 8.78574C54.8093 8.20003 54.5045 7.80955 53.6664 7.73812C52.8331 7.66669 52.4665 7.9905 52.4188 8.58574C52.3665 9.18098 52.676 9.57145 53.5045 9.64288C54.3379 9.71431 54.7093 9.38098 54.7617 8.7905L54.7569 8.78574Z" fill="white"></path><path d="M61.6239 8.36681L59.6334 9.38109L60.881 11.6763L59.6763 11.4049L58.8096 9.8049L57.862 10.2859L57.7096 10.9573L56.7524 10.7382L57.5001 7.42871L58.462 7.643L58.1286 9.12871L60.1953 8.03823L61.6334 8.36204L61.6239 8.36681Z" fill="white"></path><path d="M66.3286 9.99541L66.0667 10.7192L63.6858 9.85732L63.5 10.3668L65.7905 11.1954L65.5286 11.9192L63.2381 11.0906L63.0524 11.6002L65.4334 12.4573L65.1715 13.1811L61.8667 11.9859L63.0191 8.79541L66.3238 9.99065L66.3286 9.99541Z" fill="white"></path><path d="M69.7621 14.3526L70.8764 12.1907L71.7478 12.6383L70.1907 15.6526L68.9097 14.9907L68.2478 11.9097L67.1335 14.0716L66.2573 13.6193L67.8145 10.605L69.1002 11.2669L69.7621 14.3478V14.3526Z" fill="white"></path><path d="M27.395 85.4763C27.2474 85.7192 27.395 86.0239 28.1569 86.4858C28.8569 86.9049 29.095 86.9001 29.2045 86.7192C29.3331 86.5097 29.2236 86.3906 28.395 85.8144C27.2665 85.024 26.8903 84.4763 27.276 83.8335C27.6426 83.2287 28.4617 83.3478 29.4665 83.9525C30.5855 84.6239 31.0236 85.3525 30.6617 86.0144L29.7807 85.4859C29.9331 85.2287 29.7141 84.962 29.0617 84.5716C28.4426 84.2001 28.2426 84.2192 28.1474 84.3763C28.0379 84.5573 28.1474 84.6954 28.895 85.2335C29.9141 85.9573 30.5617 86.4478 30.1045 87.2097C29.6569 87.9525 28.8379 87.7573 27.8045 87.1335C26.6284 86.4239 26.0903 85.7382 26.5093 84.9478L27.3903 85.4811L27.395 85.4763Z" fill="white"></path><path d="M31.5236 87.1909C31.9712 86.1576 32.9426 85.8623 34.2569 86.429C35.5664 86.9957 36.014 87.9147 35.5712 88.9433C35.1236 89.9766 34.1426 90.2814 32.8331 89.7147C31.5188 89.148 31.0759 88.229 31.5236 87.1909ZM34.6283 88.5385C34.8616 87.9957 34.695 87.5338 33.9236 87.1957C33.1569 86.8623 32.7045 87.0576 32.4712 87.6004C32.2331 88.1481 32.4045 88.6147 33.1664 88.948C33.9331 89.2814 34.395 89.0814 34.6283 88.5338V88.5385Z" fill="white"></path><path d="M39.3047 88.2194C40.5047 88.5575 41.0428 89.2623 40.9047 90.129L39.9 89.848C39.919 89.529 39.6857 89.1909 39.0809 89.0242C38.3809 88.829 37.9476 89.0766 37.7857 89.648C37.6238 90.2242 37.8714 90.6671 38.5666 90.8623C39.1714 91.029 39.5476 90.8623 39.6952 90.5718L40.7 90.8528C40.3666 91.6718 39.5428 92.0004 38.3381 91.6671C37.0285 91.3004 36.4809 90.4909 36.7905 89.3718C37.1047 88.2575 37.9905 87.8528 39.3 88.2194H39.3047Z" fill="white"></path><path d="M43.3948 89.2289L42.7948 92.5623L41.8281 92.3861L42.4281 89.0527L43.3948 89.2289Z" fill="white"></path><path d="M44.4189 91.1481C44.5094 90.029 45.3332 89.4338 46.757 89.5481C48.176 89.6624 48.8999 90.3909 48.8046 91.5052C48.7141 92.6243 47.8856 93.229 46.4618 93.1147C45.0379 93.0005 44.3189 92.2719 44.4141 91.1481H44.4189ZM47.7856 91.4243C47.8332 90.8386 47.5284 90.4528 46.6903 90.3814C45.857 90.3148 45.4951 90.6433 45.4427 91.2338C45.3951 91.829 45.7046 92.2148 46.5332 92.2862C47.3665 92.3528 47.7379 92.0195 47.7856 91.4243Z" fill="white"></path><path d="M51.1188 92.048C51.1331 92.3337 51.4235 92.5051 52.314 92.4575C53.1283 92.4146 53.3235 92.2766 53.3093 92.0623C53.295 91.8146 53.1426 91.7813 52.1331 91.767C50.7569 91.7432 50.1331 91.5004 50.095 90.748C50.0569 90.0432 50.8045 89.6813 51.9759 89.6242C53.2807 89.5575 54.0521 89.9099 54.1188 90.6623L53.095 90.7146C53.0807 90.4146 52.7474 90.3194 51.9854 90.3575C51.2664 90.3956 51.1093 90.5242 51.1188 90.7051C51.1283 90.9146 51.295 90.9718 52.2188 91.0004C53.4664 91.0289 54.2807 91.0718 54.3283 91.9623C54.3712 92.8289 53.5854 93.1242 52.3807 93.1861C51.0093 93.2575 50.1759 92.9861 50.0854 92.0956L51.114 92.0432L51.1188 92.048Z" fill="white"></path><path d="M55.7523 92.0385L56.6904 91.9004L56.7952 92.629L55.8571 92.7671L55.7476 92.0385H55.7523Z" fill="white"></path><path d="M59.4808 88.5382C60.6951 88.243 61.5094 88.5953 61.8141 89.4191L60.7999 89.6668C60.6618 89.3763 60.2903 89.2001 59.6808 89.3477C58.9761 89.5192 58.7189 89.9477 58.857 90.5287C58.9999 91.1096 59.4332 91.3763 60.1332 91.2049C60.7427 91.0572 60.9903 90.7239 60.9761 90.3953L61.9903 90.1477C62.0999 91.0239 61.5427 91.7191 60.3284 92.0144C59.0046 92.3382 58.1284 91.9001 57.8522 90.7715C57.576 89.6477 58.1522 88.862 59.4761 88.5382H59.4808Z" fill="white"></path><path d="M63.1522 89.3956C62.7379 88.348 63.2189 87.4527 64.5474 86.9242C65.8712 86.4003 66.8427 86.7337 67.2522 87.7765C67.6665 88.8242 67.1855 89.7337 65.8617 90.2575C64.5331 90.7813 63.5665 90.448 63.1522 89.3956ZM66.2998 88.1527C66.0855 87.6051 65.6379 87.3908 64.857 87.7003C64.0808 88.0051 63.8951 88.4622 64.1141 89.0146C64.3331 89.5718 64.7855 89.7813 65.557 89.4765C66.3331 89.1718 66.5189 88.7051 66.2998 88.1527Z" fill="white"></path><path d="M69.3381 88.6907L67.6333 85.7574L68.9571 84.986L71.1095 86.3383L70.9952 83.8002L72.319 83.0288L74.0238 85.9621L73.1762 86.4526L71.9428 84.3288L72.0762 87.0955L71.2904 87.5526L68.9524 86.0717L70.1904 88.1955L69.3381 88.6907Z" fill="white"></path><path d="M23.019 81.8382C13.9952 74.1811 8.2666 62.7573 8.2666 50.0001C8.2666 37.243 14.2999 25.2144 23.738 17.562" stroke="#E20D19" stroke-miterlimit="10"></path><path d="M76.2666 17.5669C85.7047 25.2193 91.7333 36.905 91.7333 50.0002C91.7333 63.0955 86.0047 74.1859 76.9809 81.8431" stroke="#E20D19" stroke-miterlimit="10"></path></g><defs><clipPath id="clip0_101_22114"><rect width="100" height="100" fill="white"></rect></clipPath></defs></svg>