<?xml version="1.0" encoding="utf-8"?>
<!-- Generator: Adobe Illustrator 27.7.0, SVG Export Plug-In . SVG Version: 6.00 Build 0)  -->
<svg version="1.1" id="Layer_1" xmlns="http://www.w3.org/2000/svg" xmlns:xlink="http://www.w3.org/1999/xlink" x="0px" y="0px"
	 viewBox="0 0 200 200" style="enable-background:new 0 0 200 200;" xml:space="preserve">
<style type="text/css">
	.st0{fill:#FFFFFF;}
	.st1{fill:#FDB717;}
</style>
<g>
	<g>
		<path class="st0" d="M91.4,148H64.2l-7.9,7.9c9.9,7.8,22,13,35.1,14.6V148z"/>
		<path class="st0" d="M123,148h-14.5v22.4c13.2-1.6,25.2-6.8,35.2-14.6l-14.2-14.2L123,148z"/>
		<path class="st0" d="M66.2,121.7v-13.1H29.6c1.6,13.2,6.8,25.2,14.6,35.1L66.2,121.7z"/>
		<path class="st0" d="M66.2,78.4l-22-22c-7.8,9.9-13,22-14.6,35.1h36.6V78.4z"/>
		<path class="st0" d="M129.5,58.4l14.2-14.2c-9.9-7.8-22-13-35.2-14.6v22.4H123L129.5,58.4z"/>
		<path class="st0" d="M139.8,108.6v19.1l16.1,16.1c7.8-9.9,13-22,14.6-35.1H139.8z"/>
		<path class="st0" d="M91.4,52.1V29.6c-13.2,1.6-25.2,6.8-35.1,14.6l7.9,7.9H91.4z"/>
		<path class="st0" d="M139.8,91.5h30.6c-1.6-13.2-6.8-25.2-14.6-35.1l-16.1,16.1V91.5z"/>
		<polygon class="st0" points="112.8,85.3 112.8,79.7 110.8,77.8 92.3,77.8 92.3,87.2 110.8,87.2 		"/>
		<polygon class="st0" points="112.8,120.4 112.8,114.8 110.8,112.9 92.3,112.9 92.3,122.3 110.8,122.3 		"/>
		<path d="M166.5,171c2.5,0,4.4-2,4.4-4.4c0-2.5-2-4.4-4.4-4.4c-2.5,0-4.4,2-4.4,4.4C162,169,164,171,166.5,171z M166.5,163.1
			c1.9,0,3.5,1.6,3.5,3.5c0,1.9-1.6,3.5-3.5,3.5c-1.9,0-3.5-1.6-3.5-3.5C163,164.6,164.6,163.1,166.5,163.1z"/>
		<path d="M165.6,167h0.7l1,2.1h1.1l-1-2.2c0.6-0.2,1-0.8,1-1.4c0-0.8-0.7-1.5-1.5-1.5l-2.1,0v5.1h1V167z M165.6,165h1.2
			c0.3,0,0.6,0.2,0.6,0.6c0,0.3-0.2,0.6-0.6,0.6h-1.2V165z"/>
	</g>
	<g>
		<path class="st1" d="M100,186.6c47.8,0,86.5-38.7,86.5-86.5c0-47.8-38.7-86.5-86.5-86.5c-47.8,0-86.5,38.7-86.5,86.5
			C13.5,147.8,52.2,186.6,100,186.6z M100,16.7c46,0,83.3,37.3,83.3,83.3c0,46-37.3,83.3-83.3,83.3c-46,0-83.3-37.3-83.3-83.3
			C16.7,54,54,16.7,100,16.7z"/>
		<path class="st1" d="M153.4,53.3c-2.1-2.4-4.3-4.6-6.6-6.6l-14.4,14.4l6.7,6.6L153.4,53.3z"/>
		<path class="st1" d="M104.7,29.3c-1.6-0.1-3.1-0.2-4.7-0.2c-1.6,0-3.1,0.1-4.7,0.2v22.8h9.4V29.3z"/>
		<path class="st1" d="M60.2,53.6l-6.9-6.9c-2.4,2.1-4.6,4.3-6.6,6.6l13.6,13.6V53.6z"/>
		<path class="st1" d="M53.3,153.4l6.9-6.9v-13.3l-13.6,13.6C48.7,149.1,50.9,151.3,53.3,153.4z"/>
		<path class="st1" d="M66.2,95.4h-37c-0.1,1.6-0.2,3.1-0.2,4.7c0,1.6,0.1,3.1,0.2,4.7h37V95.4z"/>
		<path class="st1" d="M134.9,100.1l4.8,4.7h31c0.1-1.6,0.2-3.1,0.2-4.7c0-1.6-0.1-3.1-0.2-4.7h-31L134.9,100.1z"/>
		<path class="st1" d="M132.3,139l14.4,14.4c2.4-2.1,4.6-4.3,6.6-6.6L139,132.4L132.3,139z"/>
		<path class="st1" d="M95.3,170.8c1.6,0.1,3.1,0.2,4.7,0.2c1.6,0,3.1-0.1,4.7-0.2V148h-9.4V170.8z"/>
		<path class="st1" d="M119.4,123.2V112l-5.9-5.7H85.6v22.6h27.9L119.4,123.2z M88.7,125.9v-16.6h23.7l4.1,4v8.6l-4.1,4H88.7z"/>
		<path class="st1" d="M119.4,88.1V76.9l-5.9-5.7H85.6v22.6h27.9L119.4,88.1z M88.7,90.8V74.2h23.7l4.1,4v8.6l-4.1,4H88.7z"/>
		<path class="st1" d="M69.8,125.6l-6,5.8v13h57.7l14.6-14.2v-23.8l-6.4-6.3l6.4-6.3V69.9l-14.6-14.2H63.8v13l6,5.8V125.6z
			 M66.8,67.4v-8.7h53.5l12.8,12.5v21.3l-7.8,7.5l7.8,7.5v21.3l-12.8,12.5H66.8v-8.7l6-5.8V73.3L66.8,67.4z"/>
	</g>
	<g>
		<path d="M100,183.4c46,0,83.3-37.3,83.3-83.3c0-46-37.3-83.3-83.3-83.3c-46,0-83.3,37.3-83.3,83.3C16.7,146.1,54,183.4,100,183.4z
			 M46.6,146.8l13.6-13.6v13.3l-6.9,6.9C50.9,151.3,48.7,149.1,46.6,146.8z M63.8,68.7v-13h57.7l14.6,14.2v23.8l-6.4,6.3l6.4,6.3
			v23.8l-14.6,14.2H63.8v-13l6-5.8v-51L63.8,68.7z M56.3,155.9l7.9-7.9h27.3v22.4C78.3,168.9,66.2,163.7,56.3,155.9z M100,171
			c-1.6,0-3.1-0.1-4.7-0.2V148h9.4v22.8C103.1,170.9,101.6,171,100,171z M108.6,170.5V148H123l6.5-6.3l14.2,14.2
			C133.8,163.7,121.7,168.9,108.6,170.5z M146.7,153.4L132.3,139l6.7-6.6l14.3,14.3C151.3,149.1,149.1,151.3,146.7,153.4z
			 M155.8,143.8l-16.1-16.1v-19.1h30.6C168.8,121.8,163.6,133.8,155.8,143.8z M170.9,100.1c0,1.6-0.1,3.1-0.2,4.7h-31l-4.8-4.7
			l4.8-4.7h31C170.9,96.9,170.9,98.5,170.9,100.1z M170.4,91.5h-30.6V72.4l16.1-16.1C163.6,66.3,168.8,78.3,170.4,91.5z M153.4,53.3
			L139,67.7l-6.7-6.6l14.4-14.4C149.1,48.8,151.3,51,153.4,53.3z M143.7,44.2l-14.2,14.2l-6.5-6.3h-14.5V29.6
			C121.7,31.2,133.8,36.4,143.7,44.2z M100,29.1c1.6,0,3.1,0.1,4.7,0.2v22.8h-9.4V29.3C96.9,29.2,98.4,29.1,100,29.1z M91.4,29.6
			v22.4H64.2l-7.9-7.9C66.2,36.4,78.3,31.2,91.4,29.6z M53.3,46.7l6.9,6.9v13.3L46.6,53.3C48.7,51,50.9,48.8,53.3,46.7z M44.2,56.3
			l22,22v13.1H29.6C31.2,78.3,36.4,66.3,44.2,56.3z M29.1,100.1c0-1.6,0.1-3.1,0.2-4.7h37v9.4h-37C29.1,103.2,29.1,101.6,29.1,100.1
			z M66.2,108.6v13.1l-22,22c-7.8-9.9-13-22-14.6-35.1H66.2z"/>
		<path d="M116.4,78.2l-4.1-4H88.7v16.6h23.7l4.1-4V78.2z M112.8,85.3l-1.9,1.9H92.3v-9.3h18.5l1.9,1.9V85.3z"/>
		<path d="M116.4,113.3l-4.1-4H88.7v16.6h23.7l4.1-4V113.3z M112.8,120.4l-1.9,1.9H92.3v-9.3h18.5l1.9,1.9V120.4z"/>
		<path d="M66.8,132.7v8.7h53.5l12.8-12.5v-21.3l-7.8-7.5l7.8-7.5V71.2l-12.8-12.5H66.8v8.7l6,5.8v53.6L66.8,132.7z M85.6,71.2h27.9
			l5.9,5.7v11.2l-5.9,5.7H85.6V71.2z M85.6,106.3h27.9l5.9,5.7v11.2l-5.9,5.7H85.6V106.3z"/>
	</g>
</g>
</svg>
