<svg width="30" height="30" viewBox="0 0 30 30" fill="none" xmlns="http://www.w3.org/2000/svg">
<g clip-path="url(#clip0_1_168)">
<path d="M29.1422 1.74321V0H0.154613V1.74321C0.154613 1.74321 0.153239 11.5196 0.153239 11.5779C0.153239 13.6906 0.505757 15.7665 1.20117 17.748C1.78046 19.3988 2.58857 20.9586 3.60695 22.3946L0 25.9091L2.53084 28.3739L5.91103 25.081C6.71983 25.8662 7.59872 26.5819 8.54014 27.2218C10.256 28.3873 12.1395 29.2723 14.1378 29.8521L14.6484 30L15.159 29.8521C17.1579 29.2723 19.0408 28.388 20.7566 27.2225C22.4478 26.0738 23.9369 24.6793 25.1827 23.0787C26.443 21.4587 27.4229 19.6666 28.0949 17.7507C28.7903 15.7692 29.1435 13.6933 29.1435 11.5805C29.1435 11.5223 29.1429 1.74254 29.1429 1.74254" fill="white"/>
<mask id="mask0_1_168" style="mask-type:luminance" maskUnits="userSpaceOnUse" x="1" y="1" width="27" height="22">
<path d="M1.944 1.71442C1.944 1.71442 1.94332 11.5049 1.94332 11.5631C1.94332 15.7357 3.45715 19.5642 5.97975 22.5552L27.3528 1.73316V1.71375H1.944V1.71442Z" fill="white"/>
</mask>
<g mask="url(#mask0_1_168)">
<path d="M27.3529 1.7143H1.94276V22.5551H27.3529V1.7143Z" fill="url(#paint0_linear_1_168)"/>
</g>
<path d="M14.6484 28.1738C21.9956 26.0436 27.3535 19.4129 27.3535 11.5631C27.3535 11.5062 27.3528 2.20712 27.3528 1.73316L5.97906 22.5552C8.20137 25.1908 11.2064 27.1763 14.6484 28.1738Z" fill="white"/>
<path d="M6.09451 19.7208L5.93783 19.8735L6.36937 20.2939L6.26973 20.3909L5.83819 19.9705L5.68152 20.1232L5.60043 20.0442L6.01342 19.6419L6.09451 19.7208ZM6.76656 19.6164L6.54254 19.1271L6.68547 18.9878L7.1981 19.4872L7.10464 19.5783L6.70402 19.188L6.70128 19.1907L6.94866 19.7302L6.87857 19.7978L6.32471 19.5568L6.32196 19.5595L6.72258 19.9498L6.62912 20.0408L6.11649 19.5414L6.2608 19.4009L6.7645 19.6178L6.76656 19.6164Z" fill="#001F5B"/>
<path d="M11.5603 11.5497L11.8839 12.5218L11.0353 11.9213L10.1866 12.5218L10.5109 11.5497L9.66229 10.9493H10.7116L11.0353 9.97657L11.3596 10.9493H12.4089L11.5603 11.5497Z" fill="white"/>
<path d="M6.67585 11.5497L7.52451 10.9493H6.4752L6.15085 9.97657L5.8272 10.9493H4.7772L5.62654 11.5497L5.3022 12.5218L6.15085 11.9213L6.99951 12.5218L6.67585 11.5497Z" fill="white"/>
<path d="M8.9174 14.1143L8.59305 13.1423L8.26871 14.1143H7.22009L8.06874 14.7148L7.7444 15.6868L8.59305 15.0864L9.44171 15.6868L9.11805 14.7148L9.96671 14.1143H8.9174Z" fill="white"/>
<path d="M5.74268 7.74334L4.77995 5.60852H4.74972V8.4583C4.74972 8.50315 4.71948 8.53327 4.67344 8.53327H3.81035C3.76431 8.53327 3.73339 8.50315 3.73339 8.4583V3.54733C3.73339 3.50248 3.76431 3.47302 3.81035 3.47302H4.71879C4.77995 3.47302 4.81843 3.49511 4.84042 3.54733L6.15429 6.43393H6.18521L7.47572 3.54733C7.49839 3.49511 7.53687 3.47302 7.59803 3.47302H8.49135C8.53739 3.47302 8.56763 3.50248 8.56763 3.54733V8.45763C8.56763 8.50248 8.53739 8.5326 8.49135 8.5326H7.62827C7.58223 8.5326 7.55199 8.50248 7.55199 8.45763V5.60785H7.52107L6.55903 7.74267C6.5288 7.80961 6.48276 7.83974 6.41335 7.83974H5.88629C5.81826 7.83974 5.77222 7.80961 5.7413 7.74267" fill="white"/>
<path d="M9.34344 8.5326H12.7271C12.7731 8.5326 12.8033 8.50248 12.8033 8.45762V7.63154C12.8033 7.58736 12.7724 7.55724 12.7271 7.55724H10.436C10.4051 7.55724 10.39 7.54251 10.39 7.51238V3.54666C10.39 3.50181 10.3598 3.47235 10.3137 3.47235H9.34344C9.2974 3.47235 9.26717 3.50181 9.26717 3.54666V8.45695C9.26717 8.50181 9.2974 8.53193 9.34344 8.53193" fill="white"/>
<path d="M15.6214 5.48869L15.3466 5.45187C14.7508 5.3702 14.5371 5.18409 14.5371 4.89423C14.5371 4.57424 14.7735 4.34395 15.2318 4.34395C15.6599 4.34395 16.0413 4.47784 16.4385 4.73089C16.4763 4.75298 16.5147 4.74561 16.545 4.70813L17.0109 4.03133C17.0487 3.97911 17.0411 3.94966 16.9958 3.9202C16.5601 3.59285 15.9183 3.39202 15.2311 3.39202C14.1083 3.39202 13.3902 4.00924 13.3902 4.93975C13.3902 5.87026 13.9777 6.31611 15.0325 6.45736L15.3074 6.49418C15.9258 6.57585 16.1093 6.76262 16.1093 7.05985C16.1093 7.41665 15.8042 7.66234 15.2613 7.66234C14.7185 7.66234 14.2457 7.40929 13.9021 7.14152C13.8636 7.11139 13.8183 7.11139 13.7874 7.14888L13.2067 7.79622C13.1689 7.84108 13.184 7.89329 13.2143 7.92275C13.619 8.30232 14.4058 8.61427 15.2153 8.61427C16.5594 8.61427 17.2548 7.93747 17.2548 7.02236C17.2548 6.10724 16.6893 5.63061 15.62 5.48936" fill="white"/>
<mask id="mask1_1_168" style="mask-type:luminance" maskUnits="userSpaceOnUse" x="1" y="1" width="27" height="28">
<path d="M9.90486 25.3073C8.75317 24.524 7.70867 23.6109 6.78717 22.5847L26.7563 3.13027C26.7563 5.84482 26.757 11.5183 26.757 11.5631C26.757 13.4195 26.4478 15.243 25.8369 16.9829C25.2466 18.6651 24.387 20.2397 23.2806 21.6629C22.1866 23.0714 20.8776 24.2971 19.3919 25.3073C17.9344 26.298 16.3388 27.0578 14.6484 27.5666C12.958 27.0578 11.3623 26.298 9.90486 25.3073ZM6.01617 21.6629C4.90983 20.2397 4.04949 18.6651 3.4599 16.9829C2.84969 15.243 2.53978 13.4195 2.53978 11.5631C2.53978 11.5136 2.54047 4.40153 2.54047 2.29482H25.9269L6.02923 21.6789C6.0251 21.6736 6.02029 21.6676 6.01617 21.6622M1.34754 1.13335V1.71442C1.34754 1.71442 1.34685 11.5049 1.34685 11.5631C1.34685 13.548 1.67807 15.4974 2.33088 17.3584C2.96239 19.1579 3.88182 20.8415 5.06513 22.3638C5.10292 22.412 5.14072 22.4595 5.1792 22.5077L1.68769 25.9091L2.53085 26.7312L5.94196 23.4081C6.9143 24.4819 8.01308 25.4378 9.2225 26.2605C10.8339 27.3557 12.602 28.1872 14.4787 28.7314L14.6491 28.781L14.8195 28.7314C16.6955 28.1872 18.4642 27.3564 20.0757 26.2605C21.6644 25.1807 23.0628 23.87 24.233 22.3644C25.4163 20.8421 26.3358 19.1585 26.9673 17.3591C27.6201 15.4981 27.9513 13.548 27.9513 11.5638C27.9513 11.5056 27.9506 1.71509 27.9506 1.71509V1.13402H1.34754V1.13335Z" fill="white"/>
</mask>
<g mask="url(#mask1_1_168)">
<path d="M27.9501 1.13335H1.3463V28.7803H27.9501V1.13335Z" fill="url(#paint1_radial_1_168)"/>
</g>
</g>
<defs>
<linearGradient id="paint0_linear_1_168" x1="1.78165" y1="12.0672" x2="27.1918" y2="12.0672" gradientUnits="userSpaceOnUse">
<stop stop-color="#E2231A"/>
<stop offset="0.16" stop-color="#DA231B"/>
<stop offset="0.39" stop-color="#C7231F"/>
<stop offset="0.68" stop-color="#A72325"/>
<stop offset="0.99" stop-color="#7A232D"/>
<stop offset="1" stop-color="#79232E"/>
</linearGradient>
<radialGradient id="paint1_radial_1_168" cx="0" cy="0" r="1" gradientUnits="userSpaceOnUse" gradientTransform="translate(14.5901 14.995) scale(13.753 13.398)">
<stop stop-color="#009ADD"/>
<stop offset="1" stop-color="#001F5B"/>
</radialGradient>
<clipPath id="clip0_1_168">
<rect width="29.1429" height="30" fill="white"/>
</clipPath>
</defs>
</svg>
