<svg width="12" height="30" viewBox="0 0 12 30" fill="none" xmlns="http://www.w3.org/2000/svg">
<g clip-path="url(#clip0_1_137)">
<path d="M11.9635 2.35934C11.88 2.68225 11.6242 3.09892 11.5511 3.39059C11.4833 3.68225 11.4102 4.04684 11.3215 4.276C11.2327 4.50517 11.0239 4.66142 10.9926 4.80725C10.9613 4.95309 10.8882 5.3333 10.408 6.0208C9.99045 6.62496 9.43194 7.2135 9.43194 7.2135C9.43194 7.2135 9.37453 7.43746 9.21272 7.67704C8.90998 8.13538 8.71685 8.401 8.63333 8.67184C8.54982 8.94267 8.39323 9.26038 8.17922 9.57288C7.97566 9.86454 7.86082 10.0208 7.8556 10.2395C7.85038 10.7187 7.57374 11.651 7.42759 12.0208C7.057 12.9635 6.93172 13.9114 7.07787 14.5468C7.25534 15.3281 7.83994 15.9843 7.49545 17.3958C7.20837 18.5677 6.9787 19.0312 6.9787 19.0312C6.9787 19.0312 7.52155 19.5468 7.74599 20.1458C8.04873 20.9687 8.21054 22.9687 8.21054 22.9687C8.21054 22.9687 8.3045 22.9687 8.37235 22.9948C8.44543 23.026 8.5446 23.625 8.72207 23.9114C8.89954 24.1927 9.58853 24.6458 9.62507 24.9218C9.65639 25.1927 9.47892 25.6406 9.45282 25.9843C9.44238 26.1041 9.44238 26.177 9.44238 26.2656C9.47892 26.8593 9.82342 27.375 9.90693 27.651C10.0061 27.9739 10.502 28.1875 10.6325 28.6614C10.7682 29.1354 10.7891 29.8958 10.194 29.9948C9.59897 30.0937 9.30145 29.3333 9.17096 28.9375C9.04047 28.5416 8.74295 27.8281 8.39845 27.6093C8.05395 27.3958 7.95478 27.2708 7.95478 27.1354C7.95478 27 8.13747 26.9843 7.99653 26.7291C7.83994 26.4375 7.13529 25.1666 5.10484 22.302C4.40019 21.3125 4.04525 20.0312 4.04525 20.0312H3.82603C3.82603 20.0312 3.76861 19.6979 3.50763 19.25C3.24664 18.802 2.95956 18.1979 2.82385 17.5885C2.68814 16.9791 2.62028 16.5729 2.74034 15.9479C2.86039 15.3385 3.2362 15.2031 3.25186 14.625C3.25186 14.5989 3.16835 14.5573 3.14747 14.4635C3.13181 14.3698 3.21533 14.0885 3.2362 13.9218C3.35626 13.1458 3.19967 12.2604 3.01176 12.0677C2.91259 12.0364 2.84473 12.25 2.74556 12.3802C2.62028 12.5468 2.08788 13.3385 1.56591 13.7083C1.25273 13.9323 0.82994 13.9323 0.730767 13.5208C0.558518 12.8073 0.537639 12.5625 0.642033 11.927C0.709888 11.5208 0.642033 10.6302 0.647252 10.2968C0.657691 9.9635 0.673351 9.68225 0.574177 9.41142C0.542859 9.28121 0.407148 9.21871 0.36539 9.09371C0.36539 9.026 0.448905 9.01559 0.490662 9.04684C0.433246 8.9635 0.386269 8.87496 0.328853 8.78642C0.260997 8.67184 0.167043 8.57288 0.0783091 8.46871C0.0574305 8.44267 0.0365518 8.40621 0.0469911 8.36975C0.0678698 8.3333 0.114847 8.32288 0.151384 8.3333C0.22446 8.34892 0.281876 8.401 0.339292 8.44788C0.255778 8.28642 0.156604 8.13538 0.0469911 7.98955C0.0313322 7.9583 -0.00520547 7.92705 0.00523385 7.88538C0.0208928 7.8333 0.0887484 7.81767 0.130506 7.8385C0.208801 7.87496 0.271437 7.93746 0.328853 8.00517C0.401928 8.09892 0.475003 8.18746 0.53242 8.29163C0.480223 8.13538 0.412367 7.98434 0.344512 7.82809C0.318413 7.776 0.386269 7.72392 0.438466 7.74475C0.511541 7.76559 0.553298 7.8385 0.595056 7.89579C0.756865 8.16142 0.908235 8.66663 0.949993 8.75517C0.99175 8.84371 1.01785 8.90621 1.07526 8.97392C1.12224 9.03121 1.20576 9.03642 1.25795 9.00517C1.31015 8.97913 1.29971 8.88017 1.33103 8.79163C1.36235 8.67184 1.4041 8.526 1.52937 8.46871C1.59201 8.43746 1.6964 8.43746 1.71728 8.5208C1.7225 8.59371 1.67553 8.66142 1.64943 8.72913C1.59723 8.82288 1.62333 8.8958 1.59723 8.99996C1.56069 9.13538 1.53459 9.276 1.54503 9.41663C1.55547 9.61455 1.50328 9.80725 1.38844 9.97392C1.34669 10.0677 1.33625 10.1875 1.34147 10.2916C1.34147 10.3073 1.34147 10.3698 1.34147 10.3802C1.35191 10.7187 1.51894 11.2083 1.64421 11.5937C1.82168 11.3958 2.05656 11.2552 2.10354 11.1614C2.18183 11.0156 2.20793 10.901 2.25491 10.75C2.31754 10.3698 2.65682 9.93746 2.91259 9.7708C3.17879 9.59892 3.57026 9.56246 3.57026 9.56246C3.57026 9.56246 3.76861 9.42705 4.17574 9.43225L4.84386 9.39059C4.8804 9.36975 4.90128 9.3385 4.9065 9.29684C4.9065 9.2708 4.91693 9.2135 4.9065 9.151C4.9065 9.13017 4.9065 9.10413 4.89606 9.0833C4.87518 8.99475 4.83342 8.96871 4.73425 8.93746C4.66639 8.91663 4.60897 8.8958 4.54634 8.86975C4.44195 8.82809 4.39497 8.78121 4.37409 8.67705C4.35321 8.5885 4.36365 8.40621 4.31145 8.16142C4.17574 7.55725 4.4576 7.37496 4.4837 7.29684C4.51502 7.19267 4.43151 7.026 4.60897 6.74996C4.75513 6.51559 4.89084 6.4583 4.96913 6.43225C5.00045 6.3385 5.13094 6.28121 5.26665 6.24996C5.65291 6.16663 5.99219 6.2083 6.26883 6.32288C6.37844 6.23955 6.51415 6.19267 6.6603 6.18746C7.04134 6.17705 7.35974 6.47913 7.37018 6.85934C7.37539 7.12496 7.22924 7.36454 7.01002 7.48434C7.02046 7.94788 6.85865 8.35413 6.75426 8.43746C6.61854 8.54684 6.53503 8.66142 6.54025 8.88538C6.74904 8.60934 6.83255 8.53121 6.97348 8.401C7.10919 8.28121 7.38061 8.12496 7.38061 8.12496C7.38061 8.12496 7.69379 7.46871 7.92346 7.12496C8.15312 6.78642 8.50284 6.59371 8.50284 6.59371C8.50284 6.59371 8.56548 6.3385 8.73773 6.11975C9.1031 5.66142 9.24925 5.61455 9.65117 5.151C10.0479 4.69267 10.408 4.28642 10.4654 4.1458C10.5229 4.00517 10.4707 3.72913 10.3871 3.6458C10.3454 3.60413 10.2827 3.56767 10.2149 3.53642C10.0844 3.54163 9.94869 3.53642 9.81298 3.51559C8.84734 3.34371 8.20532 2.42705 8.37235 1.4635C8.5446 0.499962 9.46326 -0.145871 10.4289 0.0260039C11.3215 0.182254 11.9374 0.979129 11.8956 1.85413C12 1.901 12.0313 2.09371 11.9635 2.35934Z" fill="#F04B24"/>
</g>
<defs>
<clipPath id="clip0_1_137">
<rect width="12" height="30" fill="white"/>
</clipPath>
</defs>
</svg>
