<svg width="30" height="8" viewBox="0 0 30 8" fill="none" xmlns="http://www.w3.org/2000/svg">
<g clip-path="url(#clip0_1_151)">
<path fill-rule="evenodd" clip-rule="evenodd" d="M25.2725 7.5H25.4275V6.7775H25.43L25.69 7.5H25.825L26.085 6.7775H26.0875V7.5H26.2425V6.5625H26.015L25.7625 7.295H25.76L25.5025 6.5625H25.2725V7.5ZM24.4075 6.705H24.705V7.5H24.87V6.705H25.1675V6.5625H24.41V6.705H24.4075ZM22.5 7.5L30 0H25.485L17.985 7.5H22.5ZM21.425 3.2675H12.345C9.5775 3.2675 9.0925 3.415 7.9075 4.6C6.8 5.7075 4.9975 7.5025 4.9975 7.5025H8.93L9.8675 6.565C10.485 5.9475 10.8025 5.885 12.0975 5.885H18.805L21.42 3.27L21.425 3.2675ZM7.7875 4.065C6.97 4.8375 5.1875 6.5675 4.2275 7.5025H0C0 7.5025 3.3875 4.125 5.27 2.27C7.2125 0.4225 8.1775 0 11.7375 0H24.6925L21.8875 2.805H12.0025C9.5025 2.805 8.94 2.9775 7.79 4.0625L7.7875 4.065Z" fill="#E63E2F"/>
</g>
<defs>
<clipPath id="clip0_1_151">
<rect width="30" height="7.5" fill="white"/>
</clipPath>
</defs>
</svg>
