<svg xmlns="http://www.w3.org/2000/svg" width="100" height="100" viewBox="0 0 100 100" fill="none"><g clip-path="url(#clip0_101_22109)"><path d="M50 100C77.6142 100 100 77.6142 100 50C100 22.3858 77.6142 0 50 0C22.3858 0 0 22.3858 0 50C0 77.6142 22.3858 100 50 100Z" fill="#003087"></path><path d="M50 2.53333C76.1714 2.53333 97.4667 23.8286 97.4667 50C97.4667 76.1714 76.1714 97.4667 50 97.4667C23.8286 97.4667 2.53333 76.1714 2.53333 50C2.53333 23.8286 23.8286 2.53333 50 2.53333ZM50 0C22.3857 0 0 22.3857 0 50C0 77.6143 22.3857 100 50 100C77.6143 100 100 77.6143 100 50C100 22.3857 77.6143 0 50 0Z" fill="white"></path><path d="M49.9998 77.9525C45.6902 75.8429 41.2378 72.562 37.7093 68.7858C34.514 65.3715 32.0236 61.4096 30.6283 56.6906C30.0378 54.7001 29.6521 52.581 29.5093 50.3334C31.1759 49.3905 34.9474 47.481 36.2998 44.1048H38.7093C37.8617 43.6382 35.4902 40.9144 35.5426 37.562C35.614 33.2858 38.1283 31.9667 38.0855 28.4382C38.0712 27.262 37.8998 25.8763 37.095 24.1953C38.8093 25.0048 39.9426 25.7048 42.4378 25.7096C45.3902 25.7191 46.2759 24.5477 50.0093 24.4858C53.7426 24.5477 54.6236 25.7191 57.5807 25.7096C60.0759 25.7048 61.2093 25.0048 62.9188 24.1953C62.114 25.8763 61.9474 27.262 61.9283 28.4382C61.8855 31.9667 64.3998 33.2858 64.4712 37.562C64.5283 40.9144 62.1569 43.6382 61.3045 44.1096H63.714C65.0664 47.4858 68.8378 49.3953 70.5045 50.3382C70.3569 52.5858 69.9759 54.7048 69.3855 56.6953C67.9902 61.4144 65.495 65.3763 62.2998 68.7906C58.7664 72.5667 54.3236 75.8477 50.0093 77.9572" fill="#003087"></path><path d="M49.9997 78.8333L49.6521 78.6619C45.2092 76.4857 40.6473 73.0809 37.1283 69.3238C33.595 65.5429 31.2188 61.4857 29.8616 56.9095C29.2426 54.819 28.8569 52.619 28.714 50.3762L28.6807 49.8809L29.114 49.6381C29.233 49.5714 29.3569 49.5 29.4949 49.4238C31.2092 48.4667 34.4045 46.6857 35.5569 43.8048L35.7569 43.3095H36.7807C35.7521 41.9667 34.6997 39.8905 34.7426 37.5476C34.7807 35.1619 35.533 33.6143 36.1997 32.2429C36.7949 31.019 37.3045 29.9619 37.2854 28.4429C37.2711 27.4809 37.1569 26.1714 36.3759 24.5333L35.4092 22.519L37.4283 23.4762C37.6235 23.5667 37.8092 23.6571 37.9902 23.7429C39.3902 24.419 40.3997 24.9095 42.433 24.9143H42.4664C43.7569 24.9143 44.5997 24.6762 45.5807 24.3952C46.6902 24.0809 47.9426 23.7238 49.9902 23.6905H50.014C52.0616 23.7238 53.3188 24.0809 54.4235 24.3952C55.4045 24.6714 56.2521 24.9143 57.5378 24.9143H57.5711C59.6092 24.9095 60.6188 24.419 62.014 23.7429C62.195 23.6571 62.3807 23.5667 62.5711 23.4762L64.5902 22.519L63.6235 24.5333C62.8378 26.1714 62.7235 27.4809 62.714 28.4429C62.695 29.9619 63.2045 31.019 63.7997 32.2429C64.4616 33.6095 65.214 35.1619 65.2569 37.5476C65.295 39.8952 64.2521 41.9714 63.2188 43.3143H64.2426L64.4426 43.8095C65.595 46.6905 68.795 48.4762 70.514 49.4333C70.6473 49.5095 70.7759 49.5762 70.8902 49.6429L71.3235 49.8857L71.2902 50.3809C71.1426 52.619 70.7569 54.819 70.1378 56.9143C68.7854 61.4905 66.4092 65.5476 62.8711 69.3286C59.3521 73.0905 54.7902 76.4952 50.3521 78.6667L50.0045 78.8381L49.9997 78.8333Z" fill="white"></path><path d="M49.9998 77.9525C45.6902 75.8429 41.2378 72.562 37.7093 68.7858C34.514 65.3715 32.0236 61.4096 30.6283 56.6906C30.0378 54.7001 29.6521 52.581 29.5093 50.3334C31.1759 49.3905 34.9474 47.481 36.2998 44.1048H38.7093C37.8617 43.6382 35.4902 40.9144 35.5426 37.562C35.614 33.2858 38.1283 31.9667 38.0855 28.4382C38.0712 27.262 37.8998 25.8763 37.095 24.1953C38.8093 25.0048 39.9426 25.7048 42.4378 25.7096C45.3902 25.7191 46.2759 24.5477 50.0093 24.4858C53.7426 24.5477 54.6236 25.7191 57.5807 25.7096C60.0759 25.7048 61.2093 25.0048 62.9188 24.1953C62.114 25.8763 61.9474 27.262 61.9283 28.4382C61.8855 31.9667 64.3998 33.2858 64.4712 37.562C64.5283 40.9144 62.1569 43.6382 61.3045 44.1096H63.714C65.0664 47.4858 68.8378 49.3953 70.5045 50.3382C70.3569 52.5858 69.9759 54.7048 69.3855 56.6953C67.9902 61.4144 65.495 65.3763 62.2998 68.7906C58.7664 72.5667 54.3236 75.8477 50.0093 77.9572" fill="#003087"></path><path d="M49.9997 76.8001C44.3235 73.7525 38.7569 69.3668 35.0473 63.7334C32.5902 60.0049 30.9521 55.7239 30.6426 50.9239C32.1902 50.0287 35.4997 48.3192 36.9426 45.0906H38.9045L39.6759 44.4144V43.5668C38.8092 43.0954 36.5283 40.5906 36.5807 37.4049C36.6378 33.9477 39.1331 32.2144 39.1188 28.5001C39.1188 28.0715 39.1045 27.0144 38.8807 26.1382C40.0712 26.6096 41.4807 26.7573 42.5759 26.7573C45.214 26.7573 47.3902 25.543 49.9997 25.5239C52.6092 25.5382 54.7902 26.7573 57.4235 26.7573C58.5188 26.7573 59.9283 26.6096 61.1188 26.1382C60.895 27.0192 60.8807 28.0763 60.8759 28.5049C60.8664 32.2192 63.3616 33.9525 63.4188 37.4096C63.4711 40.5954 61.1902 43.1001 60.3283 43.5715L60.3188 44.4192L61.0902 45.0906H63.0521C64.495 48.3239 67.8092 50.0382 69.3569 50.9287C69.0473 55.7287 67.4092 60.0096 64.9521 63.7382C61.2426 69.3715 55.6759 73.7573 49.9997 76.8001Z" fill="white"></path><path d="M49.9995 75.1095C44.8614 72.4381 39.5995 68.1191 36.1138 62.6953C33.9852 59.3857 32.5138 55.6619 32.1328 51.6476C33.0614 51.1381 35.6947 49.8048 37.5328 46.9095L49.9995 49.7429L62.4661 46.9048C64.3042 49.8 66.9376 51.1334 67.8709 51.6429C66.8614 62.2381 58.2709 70.8048 49.9995 75.1048" fill="#003087"></path><path d="M46.538 70.0002L41.9237 65.4859V54.7574H40.0713V51.1526H48.757V54.7574H47.0665V63.8526C47.0618 65.1526 47.838 65.9145 49.1903 65.9002H50.7999C52.1475 65.9097 52.9284 65.1526 52.9284 63.8526V54.7526H51.2332V51.1431H59.9189V54.7526H58.0618V65.4812L53.4522 69.9954H46.5332L46.538 70.0002Z" fill="white"></path><path d="M49.9997 32.0334C46.8664 29.8144 44.4283 29.0715 42.2568 28.7858C43.9902 27.5763 47.2283 26.3144 49.9997 26.4477C52.7759 26.3144 56.014 27.5763 57.7426 28.7858C55.5711 29.0668 53.133 29.8144 49.9997 32.0334Z" fill="#EF3340"></path><path d="M49.9998 46.7334L44.876 45.5715C45.7284 45.0382 47.3903 42.7429 47.2712 40.3715C46.0712 41.2334 44.5617 41.7477 43.0903 41.7525C40.6331 41.7668 38.376 40.4334 38.376 37.2429C38.376 34.4334 40.6712 33.7144 40.6188 31.2953C40.6093 30.9001 40.5426 30.4572 40.3807 29.9525C44.8522 29.8382 47.8569 32.062 49.995 34.3715C52.1379 32.062 55.1379 29.8382 59.6093 29.9525C59.4522 30.4572 59.3807 30.9001 59.3712 31.2953C59.3188 33.7144 61.6188 34.4334 61.6141 37.2429C61.6141 40.4334 59.3569 41.7668 56.8998 41.7525C55.4284 41.7477 53.9188 41.2334 52.7188 40.3715C52.5998 42.7429 54.2569 45.0334 55.1141 45.5715L49.9903 46.7334H49.9998Z" fill="#EF3340"></path><path d="M44.1661 33.6431C45.8138 33.6431 47.1661 34.9526 47.1661 36.5621C47.1661 38.1716 45.8185 39.4764 44.1661 39.4764C42.5138 39.4764 41.1709 38.1669 41.1709 36.5621C41.1709 34.9574 42.5185 33.6431 44.1661 33.6431Z" fill="white"></path><path d="M55.8282 33.6431C54.1806 33.6431 52.833 34.9526 52.833 36.5621C52.833 38.1716 54.1806 39.4764 55.8282 39.4764C57.4759 39.4764 58.8235 38.1669 58.8235 36.5621C58.8235 34.9574 57.4759 33.6431 55.8282 33.6431Z" fill="white"></path><path d="M49.9996 47.3952L39.9853 45.1143L39.333 45.7238H38.4282L38.0615 46.2809L49.9996 48.9952L61.9377 46.2762L61.5663 45.7238H60.6615L60.0139 45.1143L49.9996 47.3952Z" fill="#EF3340"></path><path d="M30.7095 11.3384L31.1143 12.0717L28.9 13.2955L29.2476 13.9289L31.2143 12.8431L31.6143 13.5717L29.6476 14.6574L30.1333 15.5336L29.2714 16.0098L27.6333 13.0431L30.7095 11.3431V11.3384Z" fill="white"></path><path d="M36.3001 12.6237L35.762 12.1523L33.8286 12.938L33.7715 13.6523L32.7905 14.0523L33.1334 10.2571L34.3905 9.74756L37.281 12.2285L36.3048 12.6237H36.3001ZM33.8953 12.1142L35.1334 11.6095L34.0143 10.6333L33.8953 12.1142Z" fill="white"></path><path d="M41.3476 10.1764L40.7619 7.81927L41.7095 7.58594L42.5238 10.8764L41.1286 11.224L38.6048 9.34784L39.1905 11.705L38.2381 11.9431L37.4238 8.6526L38.8238 8.30499L41.3476 10.1812V10.1764Z" fill="white"></path><path d="M46.1191 6.96208L50.2001 6.79541L50.2334 7.62874L48.6858 7.69065L48.7906 10.243L47.8096 10.2811L47.7049 7.72874L46.1525 7.79065L46.1191 6.95731V6.96208Z" fill="white"></path><path d="M51.3903 8.49526C51.4855 7.37622 52.3141 6.78098 53.7379 6.90479C55.1569 7.0286 55.876 7.75717 55.7807 8.87145C55.6855 9.9905 54.8522 10.5953 53.4331 10.4715C52.0093 10.3476 51.295 9.61907 51.3903 8.49526ZM54.7569 8.78574C54.8093 8.20003 54.5045 7.80955 53.6664 7.73812C52.8331 7.66669 52.4665 7.9905 52.4188 8.58574C52.3665 9.18098 52.676 9.57145 53.5045 9.64288C54.3379 9.71431 54.7093 9.38098 54.7617 8.7905L54.7569 8.78574Z" fill="white"></path><path d="M61.6096 8.36192L59.6144 9.37621L60.862 11.6714L59.6572 11.4L58.7905 9.80002L57.8429 10.281L57.6905 10.9524L56.7334 10.7334L57.481 7.42383L58.4429 7.63811L58.1096 9.12383L60.1763 8.03335L61.6144 8.35716L61.6096 8.36192Z" fill="white"></path><path d="M66.3286 9.99553L66.0667 10.7193L63.6858 9.85744L63.5 10.367L65.7905 11.1955L65.5286 11.9193L63.2381 11.0908L63.0524 11.6003L65.4334 12.4622L65.1715 13.186L61.8667 11.9908L63.0191 8.80029L66.3238 9.99553H66.3286Z" fill="white"></path><path d="M69.7621 14.3526L70.8764 12.1907L71.7478 12.6383L70.1907 15.6526L68.9097 14.9907L68.2478 11.9097L67.1335 14.0716L66.2573 13.6193L67.8145 10.605L69.1002 11.2669L69.7621 14.3478V14.3526Z" fill="white"></path><path d="M27.395 85.4763C27.2474 85.7192 27.395 86.0239 28.1569 86.4858C28.8569 86.9049 29.095 86.9001 29.2045 86.7192C29.3331 86.5097 29.2236 86.3906 28.395 85.8144C27.2665 85.024 26.8903 84.4763 27.276 83.8335C27.6426 83.2287 28.4617 83.3478 29.4665 83.9525C30.5855 84.6239 31.0236 85.3525 30.6617 86.0144L29.7807 85.4859C29.9331 85.2287 29.7141 84.962 29.0617 84.5716C28.4426 84.2001 28.2426 84.2192 28.1474 84.3763C28.0379 84.5573 28.1474 84.6954 28.895 85.2335C29.9141 85.9573 30.5617 86.4478 30.1045 87.2097C29.6569 87.9525 28.8379 87.7573 27.8045 87.1335C26.6284 86.4239 26.0903 85.7382 26.5093 84.9478L27.3903 85.4811L27.395 85.4763Z" fill="white"></path><path d="M31.5236 87.1909C31.9712 86.1576 32.9426 85.8623 34.2569 86.429C35.5664 86.9957 36.014 87.9147 35.5712 88.9433C35.1236 89.9766 34.1426 90.2814 32.8331 89.7147C31.5188 89.148 31.0759 88.229 31.5236 87.1909ZM34.6283 88.5385C34.8616 87.9957 34.695 87.5338 33.9236 87.1957C33.1569 86.8623 32.7045 87.0576 32.4712 87.6004C32.2331 88.1481 32.4045 88.6147 33.1664 88.948C33.9331 89.2814 34.395 89.0814 34.6283 88.5338V88.5385Z" fill="white"></path><path d="M39.3047 88.2194C40.5047 88.5575 41.0428 89.2623 40.9047 90.129L39.9 89.848C39.919 89.529 39.6857 89.1909 39.0809 89.0242C38.3809 88.829 37.9476 89.0766 37.7857 89.648C37.6238 90.2242 37.8714 90.6671 38.5666 90.8623C39.1714 91.029 39.5476 90.8623 39.6952 90.5718L40.7 90.8528C40.3666 91.6718 39.5428 92.0004 38.3381 91.6671C37.0285 91.3004 36.4809 90.4909 36.7905 89.3718C37.1047 88.2575 37.9905 87.8528 39.3 88.2194H39.3047Z" fill="white"></path><path d="M43.3948 89.2289L42.7948 92.5623L41.8281 92.3861L42.4281 89.0527L43.3948 89.2289Z" fill="white"></path><path d="M44.4189 91.1481C44.5094 90.029 45.3332 89.4338 46.757 89.5481C48.176 89.6624 48.8999 90.3909 48.8046 91.5052C48.7141 92.6243 47.8856 93.229 46.4618 93.1147C45.0379 93.0005 44.3189 92.2719 44.4141 91.1481H44.4189ZM47.7856 91.4243C47.8332 90.8386 47.5284 90.4528 46.6903 90.3814C45.857 90.3148 45.4951 90.6433 45.4427 91.2338C45.3951 91.829 45.7046 92.2148 46.5332 92.2862C47.3665 92.3528 47.7379 92.0195 47.7856 91.4243Z" fill="white"></path><path d="M51.1188 92.048C51.1331 92.3337 51.4235 92.5051 52.314 92.4575C53.1283 92.4146 53.3235 92.2766 53.3093 92.0623C53.295 91.8146 53.1426 91.7813 52.1331 91.767C50.7569 91.7432 50.1331 91.5004 50.095 90.748C50.0569 90.0432 50.8045 89.6813 51.9759 89.6242C53.2807 89.5575 54.0521 89.9099 54.1188 90.6623L53.095 90.7146C53.0807 90.4146 52.7474 90.3194 51.9854 90.3575C51.2664 90.3956 51.1093 90.5242 51.1188 90.7051C51.1283 90.9146 51.295 90.9718 52.2188 91.0004C53.4664 91.0289 54.2807 91.0718 54.3283 91.9623C54.3712 92.8289 53.5854 93.1242 52.3807 93.1861C51.0093 93.2575 50.1759 92.9861 50.0854 92.0956L51.114 92.0432L51.1188 92.048Z" fill="white"></path><path d="M55.7426 92.0429L56.6806 91.9048L56.7854 92.6334L55.8473 92.7715L55.7378 92.0429H55.7426Z" fill="white"></path><path d="M59.4808 88.5382C60.6951 88.243 61.5094 88.5953 61.8141 89.4191L60.7999 89.6668C60.6618 89.3763 60.2903 89.2001 59.6808 89.3477C58.9761 89.5192 58.7189 89.9477 58.857 90.5287C58.9999 91.1096 59.4332 91.3763 60.1332 91.2049C60.7427 91.0572 60.9903 90.7239 60.9761 90.3953L61.9903 90.1477C62.0999 91.0239 61.5427 91.7191 60.3284 92.0144C59.0046 92.3382 58.1284 91.9001 57.8522 90.7715C57.576 89.6477 58.1522 88.862 59.4761 88.5382H59.4808Z" fill="white"></path><path d="M63.1522 89.3956C62.7379 88.348 63.2189 87.448 64.5474 86.9242C65.8712 86.4003 66.8427 86.7337 67.2522 87.7765C67.6665 88.8242 67.1855 89.7337 65.8617 90.2575C64.5331 90.7813 63.5665 90.448 63.1522 89.3956ZM66.2998 88.1527C66.0855 87.6051 65.6379 87.3908 64.857 87.7003C64.0808 88.0051 63.8951 88.4622 64.1141 89.0146C64.3331 89.5718 64.7855 89.7813 65.557 89.4765C66.3331 89.1718 66.5189 88.7051 66.2998 88.1527Z" fill="white"></path><path d="M69.3381 88.6907L67.6333 85.7574L68.9571 84.986L71.1095 86.3383L70.9952 83.8002L72.319 83.0288L74.0238 85.9621L73.1762 86.4526L71.9428 84.3288L72.0762 87.0955L71.2904 87.5526L68.9524 86.0717L70.1904 88.1955L69.3381 88.6907Z" fill="white"></path><path d="M23.019 81.8382C13.9952 74.1811 8.2666 62.7573 8.2666 50.0001C8.2666 37.243 14.2999 25.2144 23.738 17.562" stroke="#EF3340" stroke-miterlimit="10"></path><path d="M76.2666 17.5669C85.7047 25.2193 91.7333 36.905 91.7333 50.0002C91.7333 63.0955 86.0047 74.1859 76.9809 81.8431" stroke="#EF3340" stroke-miterlimit="10"></path></g><defs><clipPath id="clip0_101_22109"><rect width="100" height="100" fill="white"></rect></clipPath></defs></svg>