<?xml version="1.0" encoding="utf-8"?>
<!-- Generator: Adobe Illustrator 27.9.0, SVG Export Plug-In . SVG Version: 6.00 Build 0)  -->
<svg version="1.1" id="Layer_1" xmlns="http://www.w3.org/2000/svg" xmlns:xlink="http://www.w3.org/1999/xlink" x="0px" y="0px"
	 viewBox="0 0 612 792" style="enable-background:new 0 0 612 792;" xml:space="preserve">
<style type="text/css">
	.st0{fill:#18496B;}
	.st1{fill:#FFFFFF;}
</style>
<g>
	<path id="Shield" class="st0" d="M306,741.7c-8.5,0-16.9-1.5-24.9-4.6L98.8,667.5C72,657.3,54,631.1,54,602.4V138.1
		c0-25.2,6.2-53.2,52.1-69.3c36.4-12.8,98-18.5,199.9-18.5c101.8,0,163.5,5.7,199.9,18.5c45.9,16.1,52.1,44.1,52.1,69.3v464.3
		c0,28.7-18,54.9-44.8,65.2l-182.3,69.6C322.9,740.2,314.5,741.7,306,741.7z"/>
	<g>
		<path class="st1" d="M501.8,80.3C466.8,68,406.4,62.6,306,62.6c-100.4,0-160.8,5.5-195.8,17.8c-36.4,12.8-43.9,32.3-43.9,57.7
			v464.3c0,23.7,14.8,45.2,36.9,53.7l182.3,69.6c6.6,2.5,13.5,3.8,20.5,3.8c7,0,13.9-1.3,20.5-3.8L508.8,656
			c22.1-8.4,36.9-30,36.9-53.7V138.1C545.7,112.7,538.2,93.1,501.8,80.3z M130.4,543.8c0.5,3.4-1.9,6.5-5.4,7.1
			c-3.4,0.6-6.6-1.7-7.1-5.1c-0.5-3.4,1.9-6.5,5.4-7.1C126.7,538.2,129.9,540.5,130.4,543.8z M462.5,549.6c0.4-2.7,3-4.5,5.7-4.1
			c2.8,0.5,4.7,3,4.3,5.7c-0.4,2.7-3,4.5-5.7,4.1C464,554.8,462.1,552.3,462.5,549.6z M502.8,536.7c0.6-3.9,4.3-6.6,8.3-5.9
			c4,0.7,6.9,4.4,6.3,8.3c-0.6,3.9-4.3,6.6-8.3,5.9C505,544.4,502.2,540.7,502.8,536.7z M481.9,543.8c0.5-3.4,3.7-5.6,7.1-5.1
			c3.4,0.6,5.8,3.7,5.4,7.1c-0.5,3.4-3.7,5.6-7.1,5.1C483.9,550.4,481.5,547.2,481.9,543.8z M149.8,549.6c0.4,2.7-1.5,5.3-4.3,5.7
			c-2.8,0.5-5.3-1.4-5.7-4.1c-0.4-2.7,1.5-5.3,4.3-5.7C146.8,545.1,149.4,546.9,149.8,549.6z M109.5,536.7c0.6,3.9-2.2,7.7-6.3,8.3
			c-4,0.7-7.8-2-8.3-5.9c-0.6-3.9,2.2-7.7,6.3-8.3C105.2,530.2,108.9,532.8,109.5,536.7z M212.3,481.8c-2.5-3.7-7.4-9.9-11.4-12.4
			c-2.2-1.4-5.2-4.7-6.1-7c-1.8-4.3-9.8-24.3-11.7-29.4c-4.4-11.3-17.6-22.9-25.4-36.3c-5.3-9.2-9.3-19-14.1-28.4
			c-2-4.1-3.5-8.4-4-12.8c-0.4-3.6-0.3-7.1,1.4-10.6c2.7-5.4,3.9-17.6,3.8-17.9c-0.6-3.6-1.7-7.1-1.8-10.8c0-1.5-0.6-2.5-2.1-3.3
			c-3.1-1.7-7-2.7-8.9-5.8c-1.9-3-4.8-2.9-5.9,2.2c-1.2-1.4-3-1.3-4.8-1.2c-1.8,0.1-2.4,1.7-3.5,2.6c-5.2,4.1-10.4,8.3-15.2,12.8
			c-1.9,1.7-2.1,3.9-1.1,5.8c3.6,6.8,5.4,14.4,9.4,21c1,1.7,1.7,3.7,1.7,5.7c0,4.1,1.3,7.7,3.2,11.3c1.8,3.3,3.6,6.6,5,10
			c3.6,9,6.3,18.6,9.5,27.8c4.8,13.9,17.3,44.4,18,46c2.9,6.5,4.6,13.8,9.5,19.3c4,4.5,6.2,9.4,8.6,14.8c2.6,5.8,5.6,14.4,8.4,20
			c4.1,8.1,17.8,33.6,25.6,36.5c1.8,0.7,2.1-0.1,1.5-0.8c-12.7-17.1-28.3-55.8-39.3-70.3c-5.9-8.5-23.6-55.8-37.8-91.9
			c-1-2.4-5.6-13.5-6.1-14c-2.2-2-2.2-4.8-2.2-7.5c-0.1-10.3-7.1-9.7-8-21.1c-0.5-5.9-4-6.9-3.3-10.5c0.1-0.7,2-2.1,4.5-3.7
			c3.6-1.9,5.2,2.1,7.1,4.1c1.6,1.8,3.3,2.3,4.7,2.2c0.4,0,2.2-0.8,3.4-2.1c3-0.2,4.9-1.9,5.3-3.5c1.3,0.3,3.4-1.9,3.3-2.9
			c-0.3-2.9-2.7-6.9-5.3-8.6c-0.4-1.1-0.2-1.9,0.4-2.9c0.6-1,1.7-1,2.3,0c1.1,1.8,2.3,2.8,3.8,4.2c2.1,1.8,4.4,3.4,6.2,5.7
			c0.7,0.9,1.4,3.6-4.4,7.7c-5,3.6-1.3,10.2-3,13c-1.8,3.1-9.8,0.2-13.1-0.8c-3.9-1.3-4,2.2-1.9,6.8c1.1,2.5,3.3,3.1,5.8,3.3
			c2.6,0.2,5.8-1.5,6.1-0.8c0.3,0.7-3,3.2-3.7,5.2c-0.6,1.7-1.9,7.5-0.4,13c1.5,5.6,10.5,25.5,12.8,30.7
			c2.6,5.8,20.1,44.4,27.6,53.9c7.5,9.5,14.7,11.8,20.2,19.8c3,4.4,4.1,20.3,15.9,44.1c7.9,16,15.6,32.4,23.4,33.6
			c0,0,3.6-3.8,5.5-20.6c1.1-9.8-1.1-18.4-1.1-18.4S222.1,496.6,212.3,481.8z M114.8,315.3c1.9-1.6,5.5-1.4,6,4.2
			C118.8,318.8,116.7,315.7,114.8,315.3z M118.8,311.6c1.8-2,5.4-1.1,5.7,4.5C122.8,315.8,120.8,311,118.8,311.6z M322.4,463.5
			c0.3-1.5,0.8-2.9,2.5-2.5c0,0,2,0.7,2,1c-0.1,0.9-4,3.4-4.3,3.3C322.2,465.1,322,465,322.4,463.5z M320.4,481c0-0.1,0-0.3,0.1-0.4
			l0,0c0,0,0.9-1.1,3.6-2c0,0,0,0,0.1,0c0,0,0,0,0,0c0.4-0.1,0.9-0.3,1.4-0.4c0.2-0.1,0.3,0,0.5-0.1c3-0.6,5.9-0.1,8.6,1.5
			c1.8,1.1,2.2,2.9,2.5,4.6c0.2,0.9,0.1,1.9-0.6,2.6c-0.3,0.3-0.9,0-0.9-0.1c-0.6-1.1,0.4-0.9-0.1-2.7c-0.4-1.6-4.8-3.7-7.7-3.3
			c-1.4,0.2-3.2,0.4-5.1,1.2C322.3,482.2,320.6,482.2,320.4,481z M308.5,431.7c-1.3,1-2.5,2-3.9,2.9c0.8-1.4,1.7-2.8,2.7-4.2
			c7.3-10,27.5-9.2,33.1-4.2C332.7,424.7,317.2,424.7,308.5,431.7z M485.6,381l-9.6-22.6c-0.5-1.2-1.2-2.3-1.8-3.3
			c-2.6-4.6-8.6-7.1-19.6-8.7c-12.8-1.8-16.8,0.4-18.8,2.7c-2,2.2-2.5,6-2.2,8.9c0.3,2.9,1.7,5.9,4.5,7.5c2.8,1.6,8.8,1.4,12.1,0.3
			c3.3-1.1,18-5.9,20.6-6.4c1-0.2,2.5,0.5,2.9,1.6c-1.5-0.1-2.4,0.9-2.4,0.9l8.2,19.3c-2.6-1-5.9,1.4-5.2,5.2
			c1.3,7.2-4.3,11.1-4.9,14c-0.9,4.4,0.4,10.5-0.4,19c-5.7,7.8-10.4,15.5-15.1,22c-9.4,12.8-34.9,29.7-38.9,33.9
			c-11.8,9.8-14.5,19.6-18.8,25c-1,1.3-19.3,15.7-27.4,24.1c6.8,11.8,7.2,25.5,7.2,25.5s-9.8-21.5-17.2-24
			c-4.8,1.2-15.3,9.6-24.4,12.4c-1,7.4-0.7,12.4,0.3,16.9c1.7,3.6,3.7,5.1,5.5,8.4c2.2,4.1,0,13.1-4.7,14.4c0,0,7.3-4.1-3.6-19.4
			c-0.5-0.6-1-1.6-1.1-3.1c-0.5-5.6,1-16.7,1-22.4c-0.1-2.8-0.3-4.7-0.2-7.5c-1.1,0.6-3.4,2.7-7.7,5.9l0,0
			c-0.4,5.1-0.7,19.8,5.5,31.3l0,0c0.9,1.6,3.7,7.1,2.5,8.6c-3.9,4.6-20.4-4-30.3-11.4c-6.1-4.6-13.6-12.9-17.1-16.6l0,0
			c-0.2-0.2-0.5-0.5-0.6-0.7c-3.1-3.3-1.5-5.3-1-6c0.5-0.6,4.9-6,6.6-9c2.1-3.8,7.1-11.9,6-15c-4.2-11.7-1.9-17.4,0.5-25.9
			c1.5-5.3,9.1-19.3,10.7-15c0.3,0.9-1.8,3.7-1.9,9.5c-0.1,7,2.2,7.3,3.3,12.2c1.3,5.7,0.1,10.8,10.7,15c2.6,1,9.5,2.6,12.5,3.1
			c4.3,0.8,8.2,1.1,11-1.6c2.8-2.8,3.8-8.2,4.8-14.6c0.4-2.6,0.3-5.4,0.3-8.3c0.1-4.3,1.2-10.4,0.4-13.2c-0.9-3.3-2.6-8.4-9.9-10.4
			c0,0,0.3-1.6,0.4-1.8c0.4-2.4-2-3.9-4.1-4.6c-2.6-0.8-4.6-2.2-7.2-2.5c-0.3,0-2.8,0.1-2.7,1c0,0.6,0.9,0.8,1.5,0.9
			c2.1,0.5,4.1,1.1,5.9,2.4c0.8,0.6,2.5,0.7,3.6,1.9c1.1,1.2,1,2.2,1.5,3.6c0.2,0.7,1,4.9-0.8,4.6c-0.8-0.3-1.6-1.6-2-1.8
			c-0.4-0.2-0.8-0.1-1.1,0.2c-0.6,0.5-1.1,1.3-1.7,1.8c-1,0.8-2.2,1.3-3.6,1.5c-1.5,0.2-3.2,0.6-4.3,1.3c-1.1,0.7-2.3,1.8-2.9,3.5
			c2.2-0.4,4.1-1.1,6.3-1.3c4-0.3,5.8,1.2,7.5,1.7c2.5,0.7,4.1,1.3,4.9,3.3c0.3,0.7,0.5,1.9,0.6,2.8c0.1,1.2,0.2,2.4,0.1,3.6
			c0,1.2-0.1,2.4-0.2,3.6c-0.4,5.4-5.9,4-5.9,4c-3.9-0.8-11.2-1.9-11.7-2c-1.4-0.4-2.9-0.8-4.1-1.9c-1.2-1-3.6-3-6.4-4
			c-1.1-0.4-1.7-0.9-1.7-1.5c0.2-3.9,1.3-10.2,3.5-14.5c2.3-4.3,6.6-8.5,6.4-9.2c-0.4-1.3-6.9,2.4-8.8,2.8
			c-4.5,1.5-8.6,1.9-15.3,1.9c-3,0-7.2-0.8-10.9,0c-1.2,0.3-2.8,1-2.5,4.1c0.3,3.1,4.8,8.6-2.6,12.9c-1,0.6-1.1-1.4-2.4-1.4
			c-3.9-0.1-4.1,3.4-4,4.2c0.1,0.8,0.7,2.3,1.7,2.9c0.7,0.4,1.1,0.8,1.1,1.1c0,0.5-0.7,0.7-1.2,1c-1.3,0.5-2.6,0.9-3.8,1.4
			c-1.2,0.5-1.4,0.4-2.6,1.1c-0.7,0.4-1.4,0.2-2.1-0.4c-0.4-0.4-1.1-1.5-0.2-3.1c0.2-0.4,0.5-0.9-0.2-1.1c-0.8-0.3-1,0.8-1.3,1.3
			c-0.7,1.5-0.3,3,0.8,3.9c0.6,0.5,1,1.6-0.2,1c-3-1.3-5.1-3.8-5.3-6.2c-0.1-1.9,0-6.5,5-7.3c0.8-0.1,1.5,0,1.6-0.2
			c0.1-0.2-0.5-0.6-0.9-0.8c-1.3-0.6-3.1-0.3-4.1,0.4h0c1.3-4.8,6.3-4.1,7.7-6.2c0.9-1.2,11.8-19,11.8-19s5.8-10.4,14.3-21.5
			c3.1-3.4,6.4-6.6,10-9.6c15-10.3,35-8.9,48.6,4.6c5.4,4.9,6.4,12.4,3.9,19.2c8-14.9-7.8-28.2-20.9-31.7
			c-17.5-4.9-29.5,1.8-39.7,12.3c-2-0.5-4,0.3-5.9,0.8c-5.7,1.4-11.2,3.5-16.9,5c-2.8,0.8-4.4,1.9-5.1,4.4c-0.9,3.3-2.5,6.5-4.3,9.4
			c-3.3,5.4-6.6,10.8-9.9,16.2c-1.5,2.6-1.7,5.4-1.3,8.2c0.9,5.5,2.3,10.9,2.8,16.5c0.8,8.6,4.2,16.9,9.1,23.8
			c0.8,1.1,0.9-1.4,0.8-1.2c-3-5.7-4.7-10-4.9-16.5c0.2,0.1,0.4,0.3,0.6,0.4c1.7,1.1,3.5,2.6,5.6,2.2c3-0.6,3.3-0.6,6.2-1.7
			c2.6-1.1,3.7-4.6,3.7-5.9c0,4.6-0.3,11-0.3,15.6s-0.5,9.8-0.3,15.3c0.2,4.3-0.6,8.1-1.7,12c-0.6,2.1-1.3,4.1-2.4,6.2
			c-7.4-10.4-20.4-20.1-29.8-23.3c8.8,13.3,10.1,30.8,9.1,48.5c-0.8,61.2,18.3,69.8,21.2,79.4c1.6,5.4,0.1,13.9-0.7,20.6
			c-1.4,11.8-1.4,22.7-1.3,32.6l18.2,6.9c5.2,2,10.6,3,16.1,3c5.5,0,10.9-1,16.1-3l38.3-14.6c0-0.1,0-0.2,0.1-0.3
			c2.6-14.8,2.1-29.9,0.3-38.5c0,0,4.1-19.4,4.9-22.7c3-12,6.1-29.1,6.2-60.9c3,15.3,4.3,26,4.3,26c2.3-5,5-4.8,5.4-7
			c0.4-2.2-1.2-21-1.2-21s25.5-26.6,32.6-35.3c15.4-18.5,5.1-22.1,13.7-31c1.7-1.7,21.4-21.6,23.2-16.8c1,2.8-5.9,11.9-10.6,21.4
			c3.1-0.6,7.4-5,12.1-10.2c7.5-8.2,12.6-16.1,17.3-24.2c10.7-18.4,11.4-26.7,17.7-31.6c5.2-4,0.6-10,3.2-18.8
			c2.1-7.2,0.4-11.9-1.1-14.9c-1.8-3.6-4-3.6-4.6-5.6c-0.6-2.1,1.1-3.5,0.6-6.1c0-0.3,0.5-0.3,0.7-0.1c1.7,2.2,2.6,1.4,4.3,2
			c1.7,0.6,1.4,2,0.7,4.3c-0.7,2.3,0.6,2.3,1.4,2.8c1.2,0.8,2.3,2.2,1.6,3.7c-0.5,1.1,0.5,3.3,1.4,3.5c1.4,0.4,2.5,2.4,2.8,3.8
			c0.2,1.2,1.8,1.7,3-0.5c1.3-2.3,1.2-4-0.5-5c-0.8-0.5-0.2-2.2,0.2-3.3c0.3-0.9,0.5-4.2-2.1-5.2c-1-0.4-1.2-0.7-1-1.6
			c0.3-2.2,0.2-5.7-2-6.1c-0.9-0.2-0.3-5.9-0.5-6.6C493.7,379.3,487.6,380.7,485.6,381z M441.1,356.3c-2.9-4.1,1.6-6.4,3.5-6.6
			c14.4-1.3,21.9,3.3,24.3,5.2c0.3,0.3,0.1,0.8-0.3,0.7C460.6,355.5,450.5,355.6,441.1,356.3z M336.5,469.3
			c5.5,2.3,8.1,9.7,6.3,18.8C344,480.8,338.8,475.5,336.5,469.3z M323.4,495.1c3.5,0.8,6.9,1.4,10.3,3c-5.1,2.2-19.8,1-19.4-6.5
			C316.4,494.4,320.2,494.2,323.4,495.1z M286.7,437.3l-7.5,9.6l-5.2-8.5C277.9,438,280.6,440.5,286.7,437.3z M277.1,545.6
			c10.1,14.8,31,33.6,53,33.7C301.4,586.6,289.6,569.3,277.1,545.6z M265.2,306c0,1.8-1.3,2.9-3.5,2.9h-1.8v2.3h-1.5v-8.1h3.3
			C263.9,303.2,265.2,304.2,265.2,306z M263.7,306c0-1-0.7-1.6-2-1.6h-1.8v3.2h1.8C263,307.7,263.7,307.1,263.7,306z M274,311.3
			h-1.6l-1.7-2.4c-0.1,0-0.2,0-0.3,0h-1.8v2.4h-1.5v-8.1h3.3c2.1,0,3.5,1.1,3.5,2.9c0,1.2-0.6,2.1-1.7,2.6L274,311.3z M272.3,306
			c0-1-0.7-1.6-2-1.6h-1.8v3.2h1.8C271.7,307.7,272.3,307.1,272.3,306z M277.4,310v-2.2h3.9v-1.2h-3.9v-2.1h4.4v-1.3h-5.9v8.1h6.1
			V310H277.4z M286.5,311.4c2.2,0,3.3-1.1,3.3-2.4c0-3-4.8-1.9-4.8-3.6c0-0.6,0.5-1.1,1.8-1.1c0.7,0,1.5,0.2,2.2,0.6l0.5-1.2
			c-0.7-0.5-1.7-0.7-2.7-0.7c-2.2,0-3.3,1.1-3.3,2.4c0,3,4.8,1.9,4.8,3.6c0,0.6-0.5,1.1-1.8,1.1c-1,0-2-0.4-2.7-0.9l-0.5,1.2
			C283.9,311,285.2,311.4,286.5,311.4z M293.1,310v-2.2h3.9v-1.2h-3.9v-2.1h4.4v-1.3h-5.9v8.1h6.1V310H293.1z M305.4,303.2v5.5
			l-4.5-5.5h-1.2v8.1h1.5v-5.5l4.5,5.5h1.2v-8.1H305.4z M311,311.3h1.5v-6.8h2.7v-1.3h-6.9v1.3h2.7V311.3z M318.2,310v-2.2h3.9v-1.2
			h-3.9v-2.1h4.4v-1.3h-5.9v8.1h6.1V310H318.2z M332.8,307.2c0,2.4-1.8,4.1-4.4,4.1h-3.6v-8.1h3.6
			C331,303.2,332.8,304.8,332.8,307.2z M331.3,307.2c0-1.7-1.2-2.8-3-2.8h-2v5.6h2C330.1,310,331.3,308.9,331.3,307.2z M345.1,309.1
			c0,1.4-1.1,2.2-3.2,2.2h-4v-8.1h3.8c2,0,3,0.8,3,2.1c0,0.8-0.4,1.5-1,1.8C344.5,307.3,345.1,308,345.1,309.1z M339.4,306.6h2.1
			c1,0,1.6-0.4,1.6-1.1c0-0.8-0.6-1.1-1.6-1.1h-2.1V306.6z M343.6,308.9c0-0.8-0.6-1.2-1.8-1.2h-2.4v2.3h2.4
			C343,310.1,343.6,309.7,343.6,308.9z M353.6,303.2h-1.5l-2.4,4l-2.4-4h-1.6l3.2,5.3v2.8h1.5v-2.9L353.6,303.2z M280.1,364
			c0,11.4-8.6,20.2-20,20.2c-11,0-20.1-9-20.1-20.1c0-11.1,9-20.2,20.1-20.2C271.3,343.9,280.1,352.9,280.1,364z M269.9,364.2
			c0-5.3-4-10.4-9.6-10.4c-5.6,0-9.8,5-9.8,10.3c0,5.5,4,10.2,9.8,10.2C265.9,374.3,269.9,369.5,269.9,364.2z M316,339.1v-9.4h-31.3
			v52.4c0,0.4,0.3,0.7,0.7,0.7h8.6c0.4,0,0.7-0.3,0.7-0.7v-21.1h18.4c0.4,0,0.7-0.3,0.7-0.7v-7.9c0-0.4-0.3-0.7-0.7-0.7h-18.4v-12.6
			H316z M321.8,383h8.6c0.4,0,0.7-0.3,0.7-0.7v-37c0-0.4-0.3-0.7-0.7-0.7h-8.6c-0.4,0-0.7,0.3-0.7,0.7v37
			C321.1,382.6,321.4,383,321.8,383z M326.1,328.8c-3,0-5.4,2.4-5.4,5.4c0,3,2.4,5.4,5.4,5.4s5.4-2.4,5.4-5.4
			C331.6,331.2,329.1,328.8,326.1,328.8z M226.6,346.6h8.2c0.5,0,1-0.4,0.9-1c-0.2-3.8-2-17-17.9-17c-18.5,0-17.3,15.1-17.3,16.8
			c0,1.7,0.2,10.2,14.9,15.2c0,0,5.3,1.8,7.4,3.1s3.8,2.2,3.8,5.7c0,3.5-3.1,5-7.5,5c-4.3,0-9.3-2.1-9.7-9.1c0-0.5-0.4-0.9-0.9-0.9
			H200c-0.5,0-1,0.5-0.9,1c0.3,4,2.5,18.7,19.4,18.7c19.5,0,18.5-16.2,18.5-16.5s-0.3-8.9-8.2-12.4c-7.9-3.5-12.8-5.5-14.1-6.2
			s-4.1-2-4.1-5.7c0-3.7,3.8-4.8,7.2-4.8c3.3,0,7.5,1.2,7.9,7.2C225.7,346.2,226.1,346.6,226.6,346.6z M376.4,328.8
			c-4.8,0-8.8,3.9-8.8,8.8c0,4.8,3.9,8.8,8.8,8.8s8.8-3.9,8.8-8.8C385.2,332.7,381.2,328.8,376.4,328.8z M357.6,328.8
			c-4.8,0-8.8,3.9-8.8,8.8s3.9,8.8,8.8,8.8s8.8-3.9,8.8-8.8S362.4,328.8,357.6,328.8z M404,337.6c0,4.8-3.9,8.8-8.8,8.8
			s-8.8-3.9-8.8-8.8c0-4.8,3.9-8.8,8.8-8.8S404,332.7,404,337.6z M401.8,337.6c0-3.6-2.9-6.6-6.6-6.6c-3.6,0-6.6,2.9-6.6,6.6
			c0,3.6,2.9,6.6,6.6,6.6C398.9,344.1,401.8,341.2,401.8,337.6z M376.4,384.1c4.8,0,8.8-3.9,8.8-8.8s-3.9-8.8-8.8-8.8
			s-8.8,3.9-8.8,8.8S371.6,384.1,376.4,384.1z M395.2,384.1c4.8,0,8.8-3.9,8.8-8.8s-3.9-8.8-8.8-8.8s-8.8,3.9-8.8,8.8
			S390.4,384.1,395.2,384.1z M366.3,375.3c0,4.8-3.9,8.8-8.8,8.8c-4.8,0-8.8-3.9-8.8-8.8c0-4.8,3.9-8.8,8.8-8.8
			C362.4,366.6,366.3,370.5,366.3,375.3z M364.1,375.3c0-3.6-2.9-6.6-6.6-6.6c-3.6,0-6.6,2.9-6.6,6.6c0,3.6,2.9,6.6,6.6,6.6
			C361.2,381.9,364.1,379,364.1,375.3z M357.6,365.2c4.8,0,8.8-3.9,8.8-8.8s-3.9-8.8-8.8-8.8s-8.8,3.9-8.8,8.8
			S352.7,365.2,357.6,365.2z M395.2,365.2c4.8,0,8.8-3.9,8.8-8.8s-3.9-8.8-8.8-8.8s-8.8,3.9-8.8,8.8S390.4,365.2,395.2,365.2z
			 M385.2,356.4c0,4.8-3.9,8.8-8.8,8.8c-4.8,0-8.8-3.9-8.8-8.8s3.9-8.8,8.8-8.8C381.2,347.7,385.2,351.6,385.2,356.4z M383,356.4
			c0-3.6-2.9-6.6-6.6-6.6c-3.6,0-6.6,2.9-6.6,6.6c0,3.6,2.9,6.6,6.6,6.6C380,363,383,360.1,383,356.4z M241,133.8h-19.7l-17.8,144.4
			h-20.9c-13,0-23-11.3-21.4-24.1l14.8-120.3h-20.8c-6.5,0-11.9-5.3-11.9-11.8v-11h100.4L241,133.8z M355.2,111h-94.8v0h0
			l-17.6,143.1c-1.6,12.8,8.5,24.1,21.4,24.1h0H359l10.1-83.6l-62.3,0.1l-2.8,22.8h12.3l-4.3,36.5c-0.1,0.4-0.1,0.8-0.1,1.3h-24
			l14.8-120.2c0.1-0.4,0.1-0.9,0.1-1.3h24l-4.1,33h50l3.9-31.6C377.8,123.3,368.2,111,355.2,111z M425.8,255.4l14.8-120.2
			c1.6-12.8-8.5-24.1-21.4-24.1l-20.9,0l-17.6,143.1c-1.6,12.8,8.5,24.1,21.4,24.1h63.6l2.8-22.8H425.8z M527.8,480.4l-28.3-66.7
			c0,0-1.2,1.2-1.9,2.6s-1.8,2.9-1.8,2.9l27.4,64.6c-19,13.9-58.3,39.5-110.3,56.9c-2.1,2-4.2,4.1-6.5,6.5c-1.2,1.2-4.1,4.4-7.2,7.9
			c50.8-10.3,93.1-27.9,134.2-44.7l0,40.5c-36,8.5-87.3,17.3-144.7,22c0,3.9-0.4,7.8-0.9,10.7c58.1-2.2,106.6-6.4,145.6-10.4l0,29.2
			c0,0.3,0,0.6,0,0.8c-11.8,0-78.1,0-156.8,0c0,0.2-0.1,0.3-0.1,0.5c-0.3,1.5-1.7,7.7-3.2,15.1c75.8,3.6,120.9,12.6,143.4,18.7
			c-3.6,3-7.7,5.4-12.2,7.1l-182.3,69.6c-5.2,2-10.6,3-16.1,3c-5.5,0-10.9-1-16.1-3l-182.2-69.6c-4.5-1.7-8.6-4.1-12.2-7
			c19.9-5.3,57.5-13.1,118.6-17.3c-2.5-5.4-5.1-10.9-7.5-17c-66,0-118.3,0-127.9,0c0-0.3,0-0.6,0-0.8v-29.3c33.3,3.4,73.6,7,121,9.3
			c-1-3.3-2.1-7.3-3.5-12.2c-46.3-5-87.3-12.3-117.5-19.5v-40.6c35,14.3,70.8,29.2,112,39.7c-0.5-2-1.1-4.1-1.7-6.4
			c-0.7-1.2-2.6-4.4-5-8.4c-59.1-22.7-98.8-54.4-105.3-59.8V138.1c0-21.8,5.7-35.6,35.7-46.1c33.6-11.8,92.8-17.1,191.7-17.1
			c98.9,0,158.1,5.3,191.7,17.1c30,10.5,35.7,24.3,35.7,46.1V476C532,477,530.2,478.5,527.8,480.4z"/>
	</g>
	<path class="st0" d="M493.4,711.8v-14.9H488v-3h14.3v3H497v14.9H493.4z M504.6,711.8v-18h5.4l3.3,12.3l3.2-12.3h5.4v18h-3.4v-14.1
		l-3.6,14.1h-3.5l-3.6-14.1v14.1H504.6z"/>
</g>
</svg>
